<svg version="1.1" xmlns="http://www.w3.org/2000/svg" xmlns:xlink="http://www.w3.org/1999/xlink" x="0px" y="0px" width="48" height="48" viewBox="0 0 48 48" enable-background="new 0 0 48 48" xml:space="preserve">
<path fill="#FF3D00" d="M39,39c0,1.104-0.896,2-2,2H11c-1.104,0-2-0.896-2-2V20h30V39z"/>
<g>
	<rect x="22" y="22" fill="#4CAF50" width="4" height="19"/>
	<path fill="#4CAF50" d="M31.5,16H19.697L22,14c0.455-0.683,3.832-7,8.5-7c4.512,0,5.5,3.248,5.5,4.5C36,13.309,34.802,16,31.5,16z&#10;&#9;&#9; M25.637,13H31.5c1.354,0,1.5-1.049,1.5-1.5c-0.022-0.428-0.311-1.5-2.5-1.5C28.883,10,27.03,11.518,25.637,13z"/>
	<path fill="#4CAF50" d="M28.303,16H16.5c-3.302,0-4.5-2.691-4.5-4.5c0-1.252,0.988-4.5,5.5-4.5c4.668,0,8.045,6.317,8.5,7&#10;&#9;&#9;L28.303,16z M17.5,10c-2.43,0-2.5,1.347-2.5,1.5c0.018,0.675,0.292,1.5,1.5,1.5h5.858C20.962,11.517,19.11,10,17.5,10z"/>
</g>
<circle fill="#2E7D32" cx="24" cy="14" r="2"/>
<g>
	<path fill="#DD2C00" d="M41,22H7v-4c0-1.104,0.896-2,2-2h30c1.104,0,2,0.896,2,2V22z"/>
	<circle fill="#DD2C00" cx="24" cy="31" r="7"/>
</g>
<rect x="22" y="16" fill="#388E3C" width="4" height="6"/>
<g>
	<line fill="none" stroke="#FFFFFF" stroke-width="2" x1="23.963" y1="35" x2="23.963" y2="27"/>
	<line fill="none" stroke="#FFFFFF" stroke-width="2" x1="27.428" y1="32.997" x2="20.498" y2="29.004"/>
	<line fill="none" stroke="#FFFFFF" stroke-width="2" x1="20.471" y1="32.95" x2="27.454" y2="29.05"/>
</g>
</svg>